<?xml version="1.0" standalone="no"?>
<svg xmlns:xlink="http://www.w3.org/1999/xlink" fill="#000000" width="128" height="128" viewBox="0 0 32 32" id="template" xmlns="http://www.w3.org/2000/svg"><title/><path d="M3,5.6a.354.354,0,0,0,.355-.354,2.069,2.069,0,1,1,4.137,0V20.948a.355.355,0,1,0,.709,0V17.966H19.1v2.982a.355.355,0,1,0,.709,0V5.242a2.778,2.778,0,1,0-5.556,0,.355.355,0,0,0,.709,0,2.069,2.069,0,1,1,4.138,0v6.287H8.2V5.242a2.778,2.778,0,1,0-5.555,0A.353.353,0,0,0,3,5.6Zm5.2,6.642H19.1v5.019H8.2Z"/><path d="M2,25.42a4.162,4.162,0,0,0,3.539-2.147A4.215,4.215,0,0,0,9.1,25.42a4.106,4.106,0,0,0,3.449-2.007A4.16,4.16,0,0,0,16.02,25.42,4.149,4.149,0,0,0,19.539,23.3,4.2,4.2,0,0,0,23.08,25.42a4.1,4.1,0,0,0,3.449-2.007A4.162,4.162,0,0,0,30,25.42a.355.355,0,0,0,0-.709,3.681,3.681,0,0,1-3.149-2.163.3.3,0,0,0-.032-.045.346.346,0,0,0-.044-.062.352.352,0,0,0-.064-.045c-.016-.009-.028-.023-.045-.031h-.007a.431.431,0,0,0-.049-.011.343.343,0,0,0-.222.013h-.005c-.013.006-.021.017-.034.024a.385.385,0,0,0-.074.053.315.315,0,0,0-.042.061.3.3,0,0,0-.032.047,3.671,3.671,0,0,1-3.121,2.159,3.681,3.681,0,0,1-3.149-2.163.493.493,0,0,0-.791,0,3.668,3.668,0,0,1-3.12,2.159,3.682,3.682,0,0,1-3.15-2.163.244.244,0,0,0-.032-.045.3.3,0,0,0-.044-.063.4.4,0,0,0-.064-.044.45.45,0,0,0-.045-.031h-.006a.333.333,0,0,0-.053-.011.337.337,0,0,0-.22.014h0c-.01,0-.016.013-.025.018a.327.327,0,0,0-.084.059.281.281,0,0,0-.039.058.249.249,0,0,0-.035.05A3.668,3.668,0,0,1,9.1,24.711a3.683,3.683,0,0,1-3.15-2.163.35.35,0,0,0-.411-.193.349.349,0,0,0-.418.2A3.671,3.671,0,0,1,2,24.711a.355.355,0,0,0,0,.709Z"/><path d="M30,28.827a3.681,3.681,0,0,1-3.149-2.163,3.429,3.429,0,0,1-.076-.107.43.43,0,0,0-.062-.043.4.4,0,0,0-.047-.033h-.007a.505.505,0,0,0-.056-.012.384.384,0,0,0-.081-.015l-.008,0a.355.355,0,0,0-.126.027h-.005a.355.355,0,0,0-.031.023.323.323,0,0,0-.077.054.3.3,0,0,0-.041.06.272.272,0,0,0-.033.048,3.671,3.671,0,0,1-3.121,2.159,3.681,3.681,0,0,1-3.149-2.163.493.493,0,0,0-.791,0,3.668,3.668,0,0,1-3.12,2.159,3.682,3.682,0,0,1-3.15-2.163.269.269,0,0,0-.031-.044.352.352,0,0,0-.045-.064.322.322,0,0,0-.062-.042.306.306,0,0,0-.047-.033h-.006a.413.413,0,0,0-.061-.013.347.347,0,0,0-.212.016h0a.2.2,0,0,0-.023.017.369.369,0,0,0-.087.061.294.294,0,0,0-.037.055.371.371,0,0,0-.036.052A3.668,3.668,0,0,1,9.1,28.827a3.683,3.683,0,0,1-3.15-2.163.352.352,0,0,0-.412-.193.349.349,0,0,0-.417.2A3.671,3.671,0,0,1,2,28.827a.355.355,0,0,0,0,.709,4.162,4.162,0,0,0,3.539-2.147A4.215,4.215,0,0,0,9.1,29.536a4.106,4.106,0,0,0,3.449-2.007,4.16,4.16,0,0,0,3.471,2.007,4.149,4.149,0,0,0,3.519-2.116,4.2,4.2,0,0,0,3.541,2.116,4.1,4.1,0,0,0,3.449-2.007A4.162,4.162,0,0,0,30,29.536a.355.355,0,0,0,0-.709Z"/></svg>